<svg width="20" height="20" viewBox="0 0 20 20" fill="none" xmlns="http://www.w3.org/2000/svg">
<path fill-rule="evenodd" clip-rule="evenodd" d="M20 10C20 15.5228 15.5228 20 10 20C4.47715 20 0 15.5228 0 10C0 4.47715 4.47715 0 10 0C15.5228 0 20 4.47715 20 10ZM10.3583 7.38244C9.3857 7.787 7.44177 8.62433 4.52657 9.89444C4.05318 10.0827 3.8052 10.2669 3.78263 10.4469C3.74448 10.7513 4.12559 10.8711 4.64455 11.0343C4.71515 11.0565 4.78829 11.0795 4.86327 11.1038C5.37385 11.2698 6.06068 11.464 6.41773 11.4717C6.74161 11.4787 7.1031 11.3452 7.50219 11.0711C10.226 9.23251 11.632 8.30318 11.7202 8.28314C11.7825 8.26901 11.8688 8.25124 11.9273 8.30321C11.9858 8.35518 11.98 8.4536 11.9738 8.48001C11.9361 8.64096 10.4401 10.0318 9.66591 10.7515C9.42457 10.9759 9.25338 11.135 9.21839 11.1714C9.13999 11.2528 9.06009 11.3298 8.9833 11.4038C8.50896 11.8611 8.15325 12.204 9.003 12.764C9.41135 13.0331 9.73812 13.2556 10.0641 13.4776C10.4201 13.7201 10.7752 13.9619 11.2347 14.2631C11.3517 14.3398 11.4635 14.4195 11.5724 14.4971C11.9867 14.7925 12.3589 15.0579 12.8188 15.0155C13.086 14.991 13.362 14.7397 13.5022 13.9903C13.8335 12.2193 14.4847 8.38205 14.6352 6.80081C14.6484 6.66228 14.6318 6.48498 14.6185 6.40715C14.6051 6.32932 14.5773 6.21842 14.4761 6.13633C14.3563 6.03911 14.1714 6.01861 14.0886 6.02C13.7125 6.0267 13.1354 6.22735 10.3583 7.38244Z" fill="black"/>
</svg>
