<svg width="20" height="20" viewBox="0 0 20 20" fill="none" xmlns="http://www.w3.org/2000/svg">
<path fill-rule="evenodd" clip-rule="evenodd" d="M1.4 1.4C0 2.81333 0 5.07333 0 9.6V10.4C0 14.92 0 17.18 1.4 18.6C2.81333 20 5.07333 20 9.6 20H10.4C14.92 20 17.18 20 18.6 18.6C20 17.1867 20 14.9267 20 10.4V9.6C20 5.08 20 2.82 18.6 1.4C17.1867 0 14.9267 0 10.4 0H9.6C5.08 0 2.82 0 1.4 1.4ZM3.37333 6.08667C3.48 11.2867 6.08 14.4067 10.64 14.4067H10.9067V11.4333C12.58 11.6 13.8467 12.8267 14.3533 14.4067H16.72C16.4773 13.5089 16.0469 12.6727 15.4574 11.9533C14.8679 11.234 14.1326 10.6478 13.3 10.2333C14.0461 9.77898 14.6905 9.17564 15.1929 8.46102C15.6953 7.7464 16.045 6.93585 16.22 6.08H14.0733C13.6067 7.73334 12.22 9.23334 10.9067 9.37333V6.08667H8.75333V11.8467C7.42 11.5133 5.74 9.9 5.66666 6.08667H3.37333Z" fill="black"/>
</svg>
